REM DIRINDEX 1\2,1\3,1\4
REM DIRNAME cjc112,folder01,folder02,folder03
TITLE ""
FILE "Track92.mp3" MP3
  TRACK 01 AUDIO
    TITLE "2:cjc112_412"
    INDEX 01 00:00:00
  TRACK 02 AUDIO
    TITLE "0:"
    INDEX 01 00:01:48
  TRACK 03 AUDIO
    TITLE "3:cjc112_413"
    INDEX 01 00:02:16
  TRACK 04 AUDIO
    TITLE "0:"
    INDEX 01 00:06:24
  TRACK 05 AUDIO
    TITLE "4:cjc112_414"
    INDEX 01 00:10:66
  TRACK 06 AUDIO
    TITLE "0:"
    INDEX 01 00:14:70
